<svg xmlns="http://www.w3.org/2000/svg" width="582.933" height="582.933" viewBox="0 0 582.933 582.933">
  <g id="Group_25" data-name="Group 25" transform="translate(-958.437 908.593) rotate(-45)">
    <rect id="Rectangle_8" data-name="Rectangle 8" width="106.424" height="482.881" rx="53" transform="translate(1266.977 206)" fill="#ffd1d1"/>
    <rect id="Rectangle_9" data-name="Rectangle 9" width="104.836" height="717.967" rx="52.418" transform="translate(962 499.858) rotate(-90)" fill="#ffd1d1"/>
    <rect id="Rectangle_10" data-name="Rectangle 10" width="23.826" height="93.717" rx="11.913" transform="translate(1103.37 253.653)" fill="#ffd1d1"/>
    <rect id="Rectangle_13" data-name="Rectangle 13" width="23.826" height="93.717" rx="11.913" transform="translate(1514.771 253.653)" fill="#ffd1d1"/>
    <rect id="Rectangle_15" data-name="Rectangle 15" width="23.826" height="93.717" rx="11.913" transform="translate(1514.771 547.511)" fill="#ffd1d1"/>
    <rect id="Rectangle_17" data-name="Rectangle 17" width="23.826" height="93.717" rx="11.913" transform="translate(1103.37 547.511)" fill="#ffd1d1"/>
    <rect id="Rectangle_11" data-name="Rectangle 11" width="23.826" height="95.305" rx="11.913" transform="translate(1162.141 288.598) rotate(90)" fill="#ffd1d1"/>
    <rect id="Rectangle_12" data-name="Rectangle 12" width="23.826" height="93.717" rx="11.913" transform="translate(1573.543 288.598) rotate(90)" fill="#ffd1d1"/>
    <rect id="Rectangle_14" data-name="Rectangle 14" width="23.826" height="93.717" rx="11.913" transform="translate(1573.543 582.456) rotate(90)" fill="#ffd1d1"/>
    <rect id="Rectangle_16" data-name="Rectangle 16" width="23.826" height="95.305" rx="11.913" transform="translate(1162.141 582.456) rotate(90)" fill="#ffd1d1"/>
  </g>
</svg>
