<svg xmlns="http://www.w3.org/2000/svg" width="198" height="198" viewBox="0 0 198 198">
  <path id="frown-regular" d="M99,8a99,99,0,1,0,99,99A98.983,98.983,0,0,0,99,8Zm0,178.839A79.839,79.839,0,1,1,178.839,107,79.919,79.919,0,0,1,99,186.839ZM67.065,100.613A12.774,12.774,0,1,0,54.29,87.839,12.76,12.76,0,0,0,67.065,100.613Zm63.871-25.548A12.774,12.774,0,1,0,143.71,87.839,12.76,12.76,0,0,0,130.935,75.065ZM99,126.161a53.827,53.827,0,0,0-41.436,19.4,9.581,9.581,0,0,0,14.73,12.255,34.717,34.717,0,0,1,53.412,0,9.581,9.581,0,0,0,14.73-12.255A53.826,53.826,0,0,0,99,126.161Z" transform="translate(0 -8)" fill="#ffd1d1"/>
</svg>
